<?xml version="1.0" standalone="no"?>
<!DOCTYPE svg PUBLIC "-//W3C//DTD SVG 20010904//EN"
 "http://www.w3.org/TR/2001/REC-SVG-20010904/DTD/svg10.dtd">
<svg version="1.0" xmlns="http://www.w3.org/2000/svg"
 width="500.000000pt" height="500.000000pt" viewBox="0 0 500.000000 500.000000"
 preserveAspectRatio="xMidYMid meet">

<g transform="translate(0.000000,500.000000) scale(0.100000,-0.100000)"
fill="#000000" stroke="none">
<path d="M3167 3263 c-4 -3 -7 -123 -7 -265 0 -208 -3 -258 -13 -258 -8 0 -36
11 -63 25 -27 14 -54 25 -61 25 -10 0 -62 -27 -313 -163 l-65 -35 0 -217 0
-217 120 -64 c66 -35 152 -80 191 -101 l71 -36 94 50 c52 28 130 70 174 93 44
23 90 52 103 63 l22 20 0 469 c0 287 -4 476 -10 488 -5 10 -59 43 -120 74
-120 61 -114 59 -123 49z m-72 -779 l66 -36 -3 -72 -3 -71 -66 -38 -66 -38
-52 31 c-29 16 -56 30 -61 30 -32 0 -43 136 -12 162 17 16 111 67 124 68 4 0
37 -16 73 -36z"/>
<path d="M865 2776 c-22 -12 -106 -57 -187 -100 l-148 -79 0 -268 c0 -155 4
-270 9 -274 8 -4 220 103 241 122 2 2 3 47 2 99 -2 52 0 114 4 139 6 40 11 48
56 76 28 17 63 31 78 31 26 1 108 -41 129 -66 6 -7 12 -72 13 -147 l3 -134
113 -63 c62 -34 117 -60 122 -57 6 4 10 113 10 270 l0 264 -27 19 c-62 42
-347 192 -364 191 -8 0 -32 -10 -54 -23z"/>
<path d="M3974 2749 c-139 -72 -278 -151 -286 -163 -4 -6 -8 -101 -8 -212 l0
-200 38 -21 c20 -11 82 -44 137 -74 55 -30 126 -68 158 -84 l58 -30 117 60
c64 33 117 66 117 74 0 7 -43 36 -95 64 -52 28 -133 71 -180 96 l-85 46 -3 72
-3 72 61 35 c34 20 67 36 75 36 8 0 41 -16 74 -35 l61 -36 0 -59 c0 -33 4 -60
10 -60 18 0 220 117 232 134 13 18 9 123 -4 134 -13 10 -63 37 -264 143 l-111
59 -99 -51z"/>
</g>
</svg>
