<?xml version="1.0" standalone="no"?>
<!DOCTYPE svg PUBLIC "-//W3C//DTD SVG 20010904//EN"
 "http://www.w3.org/TR/2001/REC-SVG-20010904/DTD/svg10.dtd">
<svg version="1.0" xmlns="http://www.w3.org/2000/svg"
 width="500.000000pt" height="500.000000pt" viewBox="0 0 500.000000 500.000000"
 preserveAspectRatio="xMidYMid meet">

<g transform="translate(0.000000,500.000000) scale(0.100000,-0.100000)"
fill="#000000" stroke="none">
<path d="M2950 4755 c-42 -7 -100 -20 -130 -29 -48 -14 -73 -15 -205 -5 -241
19 -385 -2 -536 -76 l-56 -28 -136 37 c-333 91 -638 84 -852 -18 -147 -70
-245 -168 -320 -321 -70 -142 -76 -174 -76 -460 -1 -214 2 -267 20 -366 89
-484 263 -1002 411 -1219 161 -236 352 -297 542 -173 27 17 28 17 55 -9 93
-86 343 -127 508 -82 33 9 67 17 75 18 13 1 16 -26 22 -164 9 -231 23 -322 74
-462 37 -104 57 -139 118 -196 67 -63 117 -87 214 -102 79 -13 188 2 312 42
161 51 292 176 351 332 41 112 69 251 80 401 5 83 12 173 15 201 l5 51 107 6
c59 4 149 15 200 26 163 34 333 135 401 238 27 40 31 55 31 112 0 54 -5 73
-24 102 -49 72 -128 85 -326 55 -52 -8 -97 -12 -100 -10 -2 3 32 76 77 162
148 285 246 538 303 782 42 178 53 265 53 420 1 222 -29 299 -172 439 -148
146 -288 222 -509 277 -126 32 -143 34 -295 33 -89 -1 -196 -7 -237 -14z m530
-109 c163 -42 286 -107 408 -214 146 -129 182 -210 182 -407 0 -360 -180 -901
-445 -1336 -53 -86 -55 -94 -39 -106 25 -18 184 -17 308 4 105 17 136 15 171
-11 28 -20 27 -92 -1 -129 -38 -48 -117 -107 -189 -142 -108 -52 -180 -67
-350 -70 l-150 -4 -12 -103 c-7 -57 -19 -157 -28 -223 -9 -66 -18 -140 -21
-165 -7 -56 -30 -171 -45 -225 -47 -165 -168 -266 -377 -316 -181 -44 -324 -6
-418 109 -100 123 -123 227 -130 602 -3 140 -7 260 -9 267 -3 7 -32 -4 -81
-32 -85 -49 -129 -59 -249 -59 -157 0 -285 52 -313 126 -28 74 25 124 171 158
124 29 167 50 205 98 18 22 32 42 32 45 0 2 -23 7 -51 10 -29 4 -71 14 -96 23
-43 17 -44 17 -69 -7 -15 -13 -86 -92 -160 -176 -154 -175 -190 -206 -250
-223 -141 -40 -277 69 -407 325 -26 50 -51 104 -58 120 -63 164 -121 337 -150
445 -105 390 -166 727 -154 855 11 127 35 259 57 320 73 201 229 345 433 400
82 23 319 31 442 15 86 -10 203 -38 353 -83 44 -13 47 -12 120 24 41 21 102
45 135 54 90 25 281 30 394 12 92 -16 96 -15 196 9 147 35 230 43 400 39 119
-3 170 -9 245 -29z"/>
<path d="M2993 4553 c-51 -5 -54 -13 -12 -32 65 -29 185 -117 264 -195 134
-132 239 -290 301 -451 32 -83 33 -146 8 -354 -15 -125 -15 -151 0 -321 20
-225 12 -319 -36 -423 -17 -37 -29 -70 -26 -72 15 -15 189 324 277 539 168
411 234 844 150 982 -43 70 -191 194 -301 250 -26 13 -86 36 -135 50 -79 24
-106 27 -268 29 -99 2 -199 1 -222 -2z"/>
<path d="M2364 4519 c-179 -21 -338 -123 -437 -279 -75 -119 -136 -302 -152
-452 l-7 -67 70 29 c162 68 287 76 391 23 61 -31 113 -95 131 -161 42 -161 57
-436 30 -568 -7 -31 -42 -133 -80 -228 -37 -94 -70 -179 -73 -188 -5 -14 -1
-18 21 -18 63 -1 158 -71 183 -137 5 -13 9 -124 9 -246 0 -254 15 -574 31
-661 13 -74 56 -161 101 -203 67 -65 173 -79 312 -43 155 41 223 99 265 230
22 69 93 590 106 780 9 132 27 191 69 228 19 17 44 33 55 37 29 9 26 20 -13
68 -34 43 -58 86 -196 352 -138 268 -176 390 -168 539 5 98 31 153 96 203 59
44 129 63 240 64 50 0 92 2 92 5 0 13 -98 198 -133 249 -90 134 -261 282 -413
358 -72 37 -214 75 -319 87 -100 11 -110 11 -211 -1z"/>
<path d="M1320 4511 c-187 -21 -339 -119 -412 -266 -96 -191 -109 -413 -43
-741 91 -450 231 -873 357 -1084 90 -148 190 -205 260 -147 14 12 94 98 177
191 l150 169 -45 51 c-55 60 -97 140 -119 227 -14 53 -16 83 -9 174 5 61 9
227 9 370 1 296 7 361 41 498 45 180 90 279 182 403 l59 80 -76 22 c-167 47
-389 69 -531 53z"/>
<path d="M3295 3705 c-5 -2 -27 -6 -48 -10 -83 -14 -138 -106 -122 -207 13
-90 71 -246 140 -382 40 -78 88 -171 106 -208 19 -37 36 -67 39 -67 12 -2 31
69 37 134 3 39 -2 142 -12 232 -17 164 -14 235 14 436 8 56 7 59 -16 68 -23 9
-116 11 -138 4z m59 -41 c23 -9 20 -49 -6 -79 -31 -35 -83 -42 -125 -16 -68
43 -26 100 74 101 23 0 48 -3 57 -6z"/>
<path d="M1970 3674 c-30 -8 -88 -31 -129 -52 l-74 -37 -5 -220 c-11 -448 -12
-431 27 -510 58 -118 167 -203 282 -220 45 -7 47 -6 53 22 9 35 54 153 99 259
56 129 71 215 64 363 -7 147 -37 313 -64 350 -44 59 -137 76 -253 45z m220
-52 c37 -28 36 -55 0 -86 -38 -31 -82 -34 -126 -7 -32 19 -58 70 -45 88 24 37
123 40 171 5z"/>
<path d="M3419 2471 c-22 -23 -29 -39 -29 -69 0 -49 13 -54 147 -53 139 1 261
34 351 96 l37 26 -50 -7 c-27 -4 -104 -8 -170 -8 -104 0 -126 3 -166 22 -60
29 -85 28 -120 -7z"/>
<path d="M2168 2408 c-84 -93 -149 -130 -267 -149 -39 -7 -71 -15 -71 -20 0
-19 81 -34 180 -34 99 0 110 2 172 33 43 21 83 51 113 84 42 46 46 56 41 87
-6 41 -42 81 -72 81 -15 0 -45 -25 -96 -82z"/>
<path d="M3421 1069 c-119 -24 -181 -128 -137 -233 17 -42 62 -76 151 -116 98
-44 125 -72 125 -130 0 -81 -49 -120 -147 -120 -35 0 -74 8 -100 19 l-42 19
-6 -30 c-9 -37 0 -43 75 -59 74 -15 159 -6 212 23 72 39 107 137 77 215 -18
47 -50 74 -145 118 -135 63 -174 124 -122 190 41 53 111 67 188 40 24 -8 44
-14 46 -13 1 2 5 15 9 29 6 24 3 28 -27 37 -53 17 -110 21 -157 11z"/>
<path d="M250 1061 l-35 -6 -1 -210 c-1 -116 1 -258 4 -317 l5 -108 33 0 34 0
0 129 0 129 74 0 c141 0 233 69 244 181 13 135 -82 213 -252 210 -39 -1 -87
-4 -106 -8z m224 -69 c35 -21 66 -76 66 -118 0 -35 -32 -88 -70 -116 -28 -20
-114 -34 -154 -24 l-26 6 0 135 0 134 28 4 c45 8 125 -3 156 -21z"/>
<path d="M3922 1057 c-44 -14 -117 -79 -146 -130 -34 -60 -49 -138 -44 -221 7
-88 25 -141 68 -195 38 -46 136 -101 183 -101 17 0 93 -19 170 -42 135 -41
139 -42 153 -23 8 10 14 24 14 30 0 6 -40 19 -90 29 -49 10 -90 21 -90 26 0 4
22 21 49 37 148 93 174 370 47 520 -14 17 -50 43 -78 57 -43 22 -65 26 -127
25 -42 -1 -91 -6 -109 -12z m211 -73 c90 -62 131 -222 91 -350 -22 -70 -79
-138 -132 -155 -81 -27 -174 -2 -218 58 -52 70 -59 94 -59 203 0 95 3 110 27
155 14 28 37 60 50 72 65 61 167 68 241 17z"/>
<path d="M4446 1063 c-3 -3 -6 -150 -6 -325 l0 -318 178 2 177 3 0 25 0 25
-140 5 -140 5 -2 290 -2 290 -29 2 c-16 1 -32 0 -36 -4z"/>
<path d="M1675 1001 c-16 -6 -21 -20 -25 -62 -5 -52 -6 -54 -37 -57 -27 -3
-33 -8 -33 -27 0 -19 6 -24 33 -27 l32 -3 5 -170 c4 -142 8 -176 23 -198 23
-35 58 -49 116 -45 42 3 46 6 49 30 3 26 1 28 -37 28 -31 0 -44 6 -61 27 -19
24 -20 37 -18 177 l3 151 63 3 c58 3 62 4 62 27 0 24 -3 25 -65 25 l-65 0 0
65 c0 68 -4 72 -45 56z"/>
<path d="M816 875 c-177 -63 -194 -355 -26 -440 89 -45 196 -29 265 40 88 87
91 259 7 349 -57 61 -159 82 -246 51z m138 -49 c86 -36 120 -192 63 -288 -83
-143 -266 -71 -267 105 0 90 34 156 95 183 39 17 68 17 109 0z"/>
<path d="M1301 873 c-48 -25 -76 -66 -76 -112 0 -57 27 -89 109 -126 39 -18
78 -40 85 -49 24 -29 18 -76 -14 -104 -25 -21 -36 -24 -83 -19 -29 3 -60 11
-69 18 -13 11 -18 10 -29 -6 -21 -28 -18 -34 23 -52 51 -21 164 -13 201 14 41
29 65 86 57 131 -8 45 -61 97 -116 114 -46 13 -99 58 -99 83 0 9 14 30 30 47
27 27 36 30 73 25 23 -3 52 -9 63 -12 16 -5 23 -2 27 14 7 30 -15 43 -85 48
-48 3 -71 0 -97 -14z"/>
<path d="M2057 880 c-76 -23 -134 -106 -144 -205 -14 -139 78 -255 204 -255
33 0 103 33 116 55 4 8 15 15 24 15 13 0 15 -9 10 -55 -14 -133 -114 -195
-242 -151 -54 18 -65 15 -65 -18 0 -29 53 -47 149 -48 119 -3 196 54 220 162
6 25 11 147 11 273 l0 227 -30 0 c-27 0 -30 -3 -30 -30 0 -32 -26 -43 -37 -15
-15 41 -117 66 -186 45z m154 -71 c58 -41 78 -174 38 -256 -21 -44 -76 -83
-115 -83 -38 0 -101 40 -122 79 -27 47 -30 146 -6 196 40 86 133 114 205 64z"/>
<path d="M2626 871 c-17 -11 -36 -31 -43 -45 -17 -33 -33 -33 -33 -2 0 42 -11
56 -41 56 l-29 0 2 -227 3 -228 38 -3 37 -3 0 133 c0 73 5 151 11 172 15 54
61 96 106 96 33 0 34 1 31 33 -2 26 -8 33 -28 35 -14 1 -38 -6 -54 -17z"/>
<path d="M2905 878 c-79 -29 -129 -103 -142 -206 -13 -113 50 -226 142 -251
78 -21 222 -6 232 24 1 6 -1 16 -5 23 -7 10 -20 10 -61 1 -126 -27 -225 30
-233 133 l-3 33 165 5 165 5 -3 49 c-5 113 -72 188 -170 193 -32 1 -70 -3 -87
-9z m125 -53 c35 -18 60 -62 60 -105 l0 -30 -130 0 c-81 0 -130 4 -130 10 0 6
10 31 22 56 35 76 109 104 178 69z"/>
</g>
</svg>
