<?xml version="1.0" standalone="no"?>
<!DOCTYPE svg PUBLIC "-//W3C//DTD SVG 20010904//EN"
 "http://www.w3.org/TR/2001/REC-SVG-20010904/DTD/svg10.dtd">
<svg version="1.0" xmlns="http://www.w3.org/2000/svg"
 width="125.000000pt" height="125.000000pt" viewBox="0 0 125.000000 125.000000"
 preserveAspectRatio="xMidYMid meet">

<g transform="translate(0.000000,125.000000) scale(0.100000,-0.100000)"
fill="#000000" stroke="none">
<path d="M544 1221 c-186 -30 -352 -149 -434 -311 -47 -93 -64 -165 -63 -275
0 -99 11 -145 63 -271 12 -29 9 -43 -39 -184 -29 -84 -51 -154 -49 -155 2 -2
76 19 164 47 l161 51 65 -27 c246 -98 530 -18 689 194 82 108 113 208 112 355
0 134 -27 222 -99 328 -123 179 -357 281 -570 248z m-72 -278 c20 -25 68 -140
68 -165 0 -12 -12 -36 -26 -55 l-25 -33 20 -34 c30 -48 101 -111 160 -140 l50
-26 37 45 c20 25 44 45 53 45 9 -1 52 -20 96 -43 79 -42 80 -42 78 -79 -4 -60
-27 -93 -85 -122 -63 -31 -99 -32 -181 -5 -147 49 -240 118 -336 247 -67 91
-91 145 -91 210 0 57 18 101 58 145 31 33 99 38 124 10z"/>
</g>
</svg>
